STARTFONT 2.1
FONT --V2~6X6-Regular-R-Normal--6-80-54-54-C-60-FONTSPECIFIC-0
SIZE 8 54 54
FONTBOUNDINGBOX 6 6 0 -1
STARTPROPERTIES 22
FONT_ASCENT 5
FONT_DESCENT 1
PIXEL_SIZE 6
RESOLUTION_X 54
RESOLUTION_Y 54
POINT_SIZE 80
FACE_NAME "System"
FOUNDRY ""
FAMILY_NAME "V2-6X6"
WEIGHT_NAME "Regular"
RELATIVE_WEIGHT 50
SLANT "R"
SPACING "C"
SETWIDTH_NAME "Normal"
RELATIVE_SETWIDTH 50
ADD_STYLE_NAME ""
AVERAGE_WIDTH 60
STRIKEOUT_ASCENT 0
STRIKEOUT_DESCENT 1
CHARSET_REGISTRY "FONTSPECIFIC"
CHARSET_ENCODING "0"
GDOS "font-id=1 left-offset=0 right-offset=2"
ENDPROPERTIES
CHARS 256
STARTCHAR char00
ENCODING 0
SWIDTH 1000 0
DWIDTH 6 0
BBX 6 6 0 -1
BITMAP 
00
00
00
00
00
00
ENDCHAR
STARTCHAR char01
ENCODING 1
SWIDTH 1000 0
DWIDTH 6 0
BBX 6 6 0 -1
BITMAP 
78
84
CC
84
B4
78
ENDCHAR
STARTCHAR char02
ENCODING 2
SWIDTH 1000 0
DWIDTH 6 0
BBX 6 6 0 -1
BITMAP 
78
FC
B4
FC
CC
78
ENDCHAR
STARTCHAR char03
ENCODING 3
SWIDTH 1000 0
DWIDTH 6 0
BBX 6 6 0 -1
BITMAP 
00
28
38
38
10
00
ENDCHAR
STARTCHAR char04
ENCODING 4
SWIDTH 1000 0
DWIDTH 6 0
BBX 6 6 0 -1
BITMAP 
00
10
38
38
10
00
ENDCHAR
STARTCHAR char05
ENCODING 5
SWIDTH 1000 0
DWIDTH 6 0
BBX 6 6 0 -1
BITMAP 
00
10
10
38
10
00
ENDCHAR
STARTCHAR char06
ENCODING 6
SWIDTH 1000 0
DWIDTH 6 0
BBX 6 6 0 -1
BITMAP 
00
10
38
38
10
00
ENDCHAR
STARTCHAR char07
ENCODING 7
SWIDTH 1000 0
DWIDTH 6 0
BBX 6 6 0 -1
BITMAP 
00
00
30
30
00
00
ENDCHAR
STARTCHAR char08
ENCODING 8
SWIDTH 1000 0
DWIDTH 6 0
BBX 6 6 0 -1
BITMAP 
FC
FC
CC
CC
FC
FC
ENDCHAR
STARTCHAR char09
ENCODING 9
SWIDTH 1000 0
DWIDTH 6 0
BBX 6 6 0 -1
BITMAP 
00
30
48
48
30
00
ENDCHAR
STARTCHAR char0A
ENCODING 10
SWIDTH 1000 0
DWIDTH 6 0
BBX 6 6 0 -1
BITMAP 
FC
CC
B4
B4
CC
FC
ENDCHAR
STARTCHAR char0B
ENCODING 11
SWIDTH 1000 0
DWIDTH 6 0
BBX 6 6 0 -1
BITMAP 
08
30
48
48
30
00
ENDCHAR
STARTCHAR char0C
ENCODING 12
SWIDTH 1000 0
DWIDTH 6 0
BBX 6 6 0 -1
BITMAP 
00
30
48
30
30
00
ENDCHAR
STARTCHAR char0D
ENCODING 13
SWIDTH 1000 0
DWIDTH 6 0
BBX 6 6 0 -1
BITMAP 
10
18
10
70
60
00
ENDCHAR
STARTCHAR char0E
ENCODING 14
SWIDTH 1000 0
DWIDTH 6 0
BBX 6 6 0 -1
BITMAP 
0C
34
24
38
D8
C0
ENDCHAR
STARTCHAR char0F
ENCODING 15
SWIDTH 1000 0
DWIDTH 6 0
BBX 6 6 0 -1
BITMAP 
28
B0
4C
C8
34
50
ENDCHAR
STARTCHAR char10
ENCODING 16
SWIDTH 1000 0
DWIDTH 6 0
BBX 6 6 0 -1
BITMAP 
00
60
78
60
00
00
ENDCHAR
STARTCHAR char11
ENCODING 17
SWIDTH 1000 0
DWIDTH 6 0
BBX 6 6 0 -1
BITMAP 
00
18
78
18
00
00
ENDCHAR
STARTCHAR char12
ENCODING 18
SWIDTH 1000 0
DWIDTH 6 0
BBX 6 6 0 -1
BITMAP 
10
38
10
38
10
00
ENDCHAR
STARTCHAR char13
ENCODING 19
SWIDTH 1000 0
DWIDTH 6 0
BBX 6 6 0 -1
BITMAP 
48
48
48
00
48
00
ENDCHAR
STARTCHAR char14
ENCODING 20
SWIDTH 1000 0
DWIDTH 6 0
BBX 6 6 0 -1
BITMAP 
7C
E8
68
28
28
00
ENDCHAR
STARTCHAR char15
ENCODING 21
SWIDTH 1000 0
DWIDTH 6 0
BBX 6 6 0 -1
BITMAP 
30
40
30
30
08
30
ENDCHAR
STARTCHAR char16
ENCODING 22
SWIDTH 1000 0
DWIDTH 6 0
BBX 6 6 0 -1
BITMAP 
00
00
FC
00
00
00
ENDCHAR
STARTCHAR char17
ENCODING 23
SWIDTH 1000 0
DWIDTH 6 0
BBX 6 6 0 -1
BITMAP 
10
38
10
38
10
7C
ENDCHAR
STARTCHAR char18
ENCODING 24
SWIDTH 1000 0
DWIDTH 6 0
BBX 6 6 0 -1
BITMAP 
10
38
10
10
10
00
ENDCHAR
STARTCHAR char19
ENCODING 25
SWIDTH 1000 0
DWIDTH 6 0
BBX 6 6 0 -1
BITMAP 
10
10
10
38
10
00
ENDCHAR
STARTCHAR char1A
ENCODING 26
SWIDTH 1000 0
DWIDTH 6 0
BBX 6 6 0 -1
BITMAP 
00
10
78
10
00
00
ENDCHAR
STARTCHAR char1B
ENCODING 27
SWIDTH 1000 0
DWIDTH 6 0
BBX 6 6 0 -1
BITMAP 
00
20
78
20
00
00
ENDCHAR
STARTCHAR char1C
ENCODING 28
SWIDTH 1000 0
DWIDTH 6 0
BBX 6 6 0 -1
BITMAP 
00
80
80
FC
00
00
ENDCHAR
STARTCHAR char1D
ENCODING 29
SWIDTH 1000 0
DWIDTH 6 0
BBX 6 6 0 -1
BITMAP 
00
48
FC
48
00
00
ENDCHAR
STARTCHAR char1E
ENCODING 30
SWIDTH 1000 0
DWIDTH 6 0
BBX 6 6 0 -1
BITMAP 
00
10
38
7C
00
00
ENDCHAR
STARTCHAR char1F
ENCODING 31
SWIDTH 1000 0
DWIDTH 6 0
BBX 6 6 0 -1
BITMAP 
00
7C
38
10
00
00
ENDCHAR
STARTCHAR char20
ENCODING 32
SWIDTH 1000 0
DWIDTH 6 0
BBX 6 6 0 -1
BITMAP 
00
00
00
00
00
00
ENDCHAR
STARTCHAR char21
ENCODING 33
SWIDTH 1000 0
DWIDTH 6 0
BBX 6 6 0 -1
BITMAP 
10
10
10
00
10
00
ENDCHAR
STARTCHAR char22
ENCODING 34
SWIDTH 1000 0
DWIDTH 6 0
BBX 6 6 0 -1
BITMAP 
48
48
00
00
00
00
ENDCHAR
STARTCHAR char23
ENCODING 35
SWIDTH 1000 0
DWIDTH 6 0
BBX 6 6 0 -1
BITMAP 
28
7C
28
7C
28
00
ENDCHAR
STARTCHAR char24
ENCODING 36
SWIDTH 1000 0
DWIDTH 6 0
BBX 6 6 0 -1
BITMAP 
10
38
60
18
70
20
ENDCHAR
STARTCHAR char25
ENCODING 37
SWIDTH 1000 0
DWIDTH 6 0
BBX 6 6 0 -1
BITMAP 
64
68
10
2C
4C
00
ENDCHAR
STARTCHAR char26
ENCODING 38
SWIDTH 1000 0
DWIDTH 6 0
BBX 6 6 0 -1
BITMAP 
20
50
34
48
34
00
ENDCHAR
STARTCHAR char27
ENCODING 39
SWIDTH 1000 0
DWIDTH 6 0
BBX 6 6 0 -1
BITMAP 
30
10
20
00
00
00
ENDCHAR
STARTCHAR char28
ENCODING 40
SWIDTH 1000 0
DWIDTH 6 0
BBX 6 6 0 -1
BITMAP 
10
20
20
20
10
00
ENDCHAR
STARTCHAR char29
ENCODING 41
SWIDTH 1000 0
DWIDTH 6 0
BBX 6 6 0 -1
BITMAP 
20
10
10
10
20
00
ENDCHAR
STARTCHAR char2A
ENCODING 42
SWIDTH 1000 0
DWIDTH 6 0
BBX 6 6 0 -1
BITMAP 
48
30
78
30
48
00
ENDCHAR
STARTCHAR char2B
ENCODING 43
SWIDTH 1000 0
DWIDTH 6 0
BBX 6 6 0 -1
BITMAP 
00
10
7C
10
00
00
ENDCHAR
STARTCHAR char2C
ENCODING 44
SWIDTH 1000 0
DWIDTH 6 0
BBX 6 6 0 -1
BITMAP 
00
00
00
30
10
20
ENDCHAR
STARTCHAR char2D
ENCODING 45
SWIDTH 1000 0
DWIDTH 6 0
BBX 6 6 0 -1
BITMAP 
00
00
78
00
00
00
ENDCHAR
STARTCHAR char2E
ENCODING 46
SWIDTH 1000 0
DWIDTH 6 0
BBX 6 6 0 -1
BITMAP 
00
00
00
00
30
00
ENDCHAR
STARTCHAR char2F
ENCODING 47
SWIDTH 1000 0
DWIDTH 6 0
BBX 6 6 0 -1
BITMAP 
04
08
10
20
40
00
ENDCHAR
STARTCHAR char30
ENCODING 48
SWIDTH 1000 0
DWIDTH 6 0
BBX 6 6 0 -1
BITMAP 
38
48
48
48
70
00
ENDCHAR
STARTCHAR char31
ENCODING 49
SWIDTH 1000 0
DWIDTH 6 0
BBX 6 6 0 -1
BITMAP 
10
30
10
10
38
00
ENDCHAR
STARTCHAR char32
ENCODING 50
SWIDTH 1000 0
DWIDTH 6 0
BBX 6 6 0 -1
BITMAP 
70
08
30
40
78
00
ENDCHAR
STARTCHAR char33
ENCODING 51
SWIDTH 1000 0
DWIDTH 6 0
BBX 6 6 0 -1
BITMAP 
70
08
30
08
70
00
ENDCHAR
STARTCHAR char34
ENCODING 52
SWIDTH 1000 0
DWIDTH 6 0
BBX 6 6 0 -1
BITMAP 
08
18
28
7C
08
00
ENDCHAR
STARTCHAR char35
ENCODING 53
SWIDTH 1000 0
DWIDTH 6 0
BBX 6 6 0 -1
BITMAP 
78
40
70
08
70
00
ENDCHAR
STARTCHAR char36
ENCODING 54
SWIDTH 1000 0
DWIDTH 6 0
BBX 6 6 0 -1
BITMAP 
18
20
70
48
30
00
ENDCHAR
STARTCHAR char37
ENCODING 55
SWIDTH 1000 0
DWIDTH 6 0
BBX 6 6 0 -1
BITMAP 
78
08
10
20
20
00
ENDCHAR
STARTCHAR char38
ENCODING 56
SWIDTH 1000 0
DWIDTH 6 0
BBX 6 6 0 -1
BITMAP 
30
48
30
48
30
00
ENDCHAR
STARTCHAR char39
ENCODING 57
SWIDTH 1000 0
DWIDTH 6 0
BBX 6 6 0 -1
BITMAP 
30
48
38
10
60
00
ENDCHAR
STARTCHAR char3A
ENCODING 58
SWIDTH 1000 0
DWIDTH 6 0
BBX 6 6 0 -1
BITMAP 
00
30
00
00
30
00
ENDCHAR
STARTCHAR char3B
ENCODING 59
SWIDTH 1000 0
DWIDTH 6 0
BBX 6 6 0 -1
BITMAP 
00
30
00
30
10
20
ENDCHAR
STARTCHAR char3C
ENCODING 60
SWIDTH 1000 0
DWIDTH 6 0
BBX 6 6 0 -1
BITMAP 
10
20
40
20
10
00
ENDCHAR
STARTCHAR char3D
ENCODING 61
SWIDTH 1000 0
DWIDTH 6 0
BBX 6 6 0 -1
BITMAP 
00
78
00
78
00
00
ENDCHAR
STARTCHAR char3E
ENCODING 62
SWIDTH 1000 0
DWIDTH 6 0
BBX 6 6 0 -1
BITMAP 
20
10
08
10
20
00
ENDCHAR
STARTCHAR char3F
ENCODING 63
SWIDTH 1000 0
DWIDTH 6 0
BBX 6 6 0 -1
BITMAP 
70
08
30
00
30
00
ENDCHAR
STARTCHAR char40
ENCODING 64
SWIDTH 1000 0
DWIDTH 6 0
BBX 6 6 0 -1
BITMAP 
38
44
4C
4C
40
38
ENDCHAR
STARTCHAR char41
ENCODING 65
SWIDTH 1000 0
DWIDTH 6 0
BBX 6 6 0 -1
BITMAP 
30
48
48
78
48
00
ENDCHAR
STARTCHAR char42
ENCODING 66
SWIDTH 1000 0
DWIDTH 6 0
BBX 6 6 0 -1
BITMAP 
70
48
70
48
70
00
ENDCHAR
STARTCHAR char43
ENCODING 67
SWIDTH 1000 0
DWIDTH 6 0
BBX 6 6 0 -1
BITMAP 
38
40
40
40
38
00
ENDCHAR
STARTCHAR char44
ENCODING 68
SWIDTH 1000 0
DWIDTH 6 0
BBX 6 6 0 -1
BITMAP 
70
48
48
48
70
00
ENDCHAR
STARTCHAR char45
ENCODING 69
SWIDTH 1000 0
DWIDTH 6 0
BBX 6 6 0 -1
BITMAP 
78
40
70
40
78
00
ENDCHAR
STARTCHAR char46
ENCODING 70
SWIDTH 1000 0
DWIDTH 6 0
BBX 6 6 0 -1
BITMAP 
78
40
70
40
40
00
ENDCHAR
STARTCHAR char47
ENCODING 71
SWIDTH 1000 0
DWIDTH 6 0
BBX 6 6 0 -1
BITMAP 
38
40
48
48
38
00
ENDCHAR
STARTCHAR char48
ENCODING 72
SWIDTH 1000 0
DWIDTH 6 0
BBX 6 6 0 -1
BITMAP 
48
48
78
48
48
00
ENDCHAR
STARTCHAR char49
ENCODING 73
SWIDTH 1000 0
DWIDTH 6 0
BBX 6 6 0 -1
BITMAP 
38
10
10
10
38
00
ENDCHAR
STARTCHAR char4A
ENCODING 74
SWIDTH 1000 0
DWIDTH 6 0
BBX 6 6 0 -1
BITMAP 
08
08
08
48
30
00
ENDCHAR
STARTCHAR char4B
ENCODING 75
SWIDTH 1000 0
DWIDTH 6 0
BBX 6 6 0 -1
BITMAP 
48
50
60
50
48
00
ENDCHAR
STARTCHAR char4C
ENCODING 76
SWIDTH 1000 0
DWIDTH 6 0
BBX 6 6 0 -1
BITMAP 
40
40
40
40
78
00
ENDCHAR
STARTCHAR char4D
ENCODING 77
SWIDTH 1000 0
DWIDTH 6 0
BBX 6 6 0 -1
BITMAP 
44
6C
54
44
44
00
ENDCHAR
STARTCHAR char4E
ENCODING 78
SWIDTH 1000 0
DWIDTH 6 0
BBX 6 6 0 -1
BITMAP 
44
64
54
4C
44
00
ENDCHAR
STARTCHAR char4F
ENCODING 79
SWIDTH 1000 0
DWIDTH 6 0
BBX 6 6 0 -1
BITMAP 
30
48
48
48
30
00
ENDCHAR
STARTCHAR char50
ENCODING 80
SWIDTH 1000 0
DWIDTH 6 0
BBX 6 6 0 -1
BITMAP 
70
48
70
40
40
00
ENDCHAR
STARTCHAR char51
ENCODING 81
SWIDTH 1000 0
DWIDTH 6 0
BBX 6 6 0 -1
BITMAP 
30
48
48
48
30
18
ENDCHAR
STARTCHAR char52
ENCODING 82
SWIDTH 1000 0
DWIDTH 6 0
BBX 6 6 0 -1
BITMAP 
70
48
70
48
44
00
ENDCHAR
STARTCHAR char53
ENCODING 83
SWIDTH 1000 0
DWIDTH 6 0
BBX 6 6 0 -1
BITMAP 
38
40
30
08
70
00
ENDCHAR
STARTCHAR char54
ENCODING 84
SWIDTH 1000 0
DWIDTH 6 0
BBX 6 6 0 -1
BITMAP 
7C
10
10
10
10
00
ENDCHAR
STARTCHAR char55
ENCODING 85
SWIDTH 1000 0
DWIDTH 6 0
BBX 6 6 0 -1
BITMAP 
48
48
48
48
78
00
ENDCHAR
STARTCHAR char56
ENCODING 86
SWIDTH 1000 0
DWIDTH 6 0
BBX 6 6 0 -1
BITMAP 
48
48
48
50
20
00
ENDCHAR
STARTCHAR char57
ENCODING 87
SWIDTH 1000 0
DWIDTH 6 0
BBX 6 6 0 -1
BITMAP 
44
44
54
6C
44
00
ENDCHAR
STARTCHAR char58
ENCODING 88
SWIDTH 1000 0
DWIDTH 6 0
BBX 6 6 0 -1
BITMAP 
44
28
10
28
44
00
ENDCHAR
STARTCHAR char59
ENCODING 89
SWIDTH 1000 0
DWIDTH 6 0
BBX 6 6 0 -1
BITMAP 
44
44
28
10
10
00
ENDCHAR
STARTCHAR char5A
ENCODING 90
SWIDTH 1000 0
DWIDTH 6 0
BBX 6 6 0 -1
BITMAP 
78
10
20
40
78
00
ENDCHAR
STARTCHAR char5B
ENCODING 91
SWIDTH 1000 0
DWIDTH 6 0
BBX 6 6 0 -1
BITMAP 
38
20
20
20
38
00
ENDCHAR
STARTCHAR char5C
ENCODING 92
SWIDTH 1000 0
DWIDTH 6 0
BBX 6 6 0 -1
BITMAP 
40
20
10
08
04
00
ENDCHAR
STARTCHAR char5D
ENCODING 93
SWIDTH 1000 0
DWIDTH 6 0
BBX 6 6 0 -1
BITMAP 
70
10
10
10
70
00
ENDCHAR
STARTCHAR char5E
ENCODING 94
SWIDTH 1000 0
DWIDTH 6 0
BBX 6 6 0 -1
BITMAP 
10
28
44
00
00
00
ENDCHAR
STARTCHAR char5F
ENCODING 95
SWIDTH 1000 0
DWIDTH 6 0
BBX 6 6 0 -1
BITMAP 
00
00
00
00
00
FC
ENDCHAR
STARTCHAR char60
ENCODING 96
SWIDTH 1000 0
DWIDTH 6 0
BBX 6 6 0 -1
BITMAP 
30
20
10
00
00
00
ENDCHAR
STARTCHAR char61
ENCODING 97
SWIDTH 1000 0
DWIDTH 6 0
BBX 6 6 0 -1
BITMAP 
00
38
48
48
38
00
ENDCHAR
STARTCHAR char62
ENCODING 98
SWIDTH 1000 0
DWIDTH 6 0
BBX 6 6 0 -1
BITMAP 
40
70
48
48
70
00
ENDCHAR
STARTCHAR char63
ENCODING 99
SWIDTH 1000 0
DWIDTH 6 0
BBX 6 6 0 -1
BITMAP 
00
38
40
40
38
00
ENDCHAR
STARTCHAR char64
ENCODING 100
SWIDTH 1000 0
DWIDTH 6 0
BBX 6 6 0 -1
BITMAP 
08
38
48
48
38
00
ENDCHAR
STARTCHAR char65
ENCODING 101
SWIDTH 1000 0
DWIDTH 6 0
BBX 6 6 0 -1
BITMAP 
00
30
58
40
38
00
ENDCHAR
STARTCHAR char66
ENCODING 102
SWIDTH 1000 0
DWIDTH 6 0
BBX 6 6 0 -1
BITMAP 
1C
20
78
20
20
00
ENDCHAR
STARTCHAR char67
ENCODING 103
SWIDTH 1000 0
DWIDTH 6 0
BBX 6 6 0 -1
BITMAP 
00
38
48
38
08
70
ENDCHAR
STARTCHAR char68
ENCODING 104
SWIDTH 1000 0
DWIDTH 6 0
BBX 6 6 0 -1
BITMAP 
40
70
48
48
48
00
ENDCHAR
STARTCHAR char69
ENCODING 105
SWIDTH 1000 0
DWIDTH 6 0
BBX 6 6 0 -1
BITMAP 
10
70
10
10
78
00
ENDCHAR
STARTCHAR char6A
ENCODING 106
SWIDTH 1000 0
DWIDTH 6 0
BBX 6 6 0 -1
BITMAP 
10
70
10
10
10
60
ENDCHAR
STARTCHAR char6B
ENCODING 107
SWIDTH 1000 0
DWIDTH 6 0
BBX 6 6 0 -1
BITMAP 
40
48
50
70
48
00
ENDCHAR
STARTCHAR char6C
ENCODING 108
SWIDTH 1000 0
DWIDTH 6 0
BBX 6 6 0 -1
BITMAP 
30
10
10
10
78
00
ENDCHAR
STARTCHAR char6D
ENCODING 109
SWIDTH 1000 0
DWIDTH 6 0
BBX 6 6 0 -1
BITMAP 
00
68
54
54
44
00
ENDCHAR
STARTCHAR char6E
ENCODING 110
SWIDTH 1000 0
DWIDTH 6 0
BBX 6 6 0 -1
BITMAP 
00
70
48
48
48
00
ENDCHAR
STARTCHAR char6F
ENCODING 111
SWIDTH 1000 0
DWIDTH 6 0
BBX 6 6 0 -1
BITMAP 
00
30
48
48
30
00
ENDCHAR
STARTCHAR char70
ENCODING 112
SWIDTH 1000 0
DWIDTH 6 0
BBX 6 6 0 -1
BITMAP 
00
70
48
48
70
40
ENDCHAR
STARTCHAR char71
ENCODING 113
SWIDTH 1000 0
DWIDTH 6 0
BBX 6 6 0 -1
BITMAP 
00
38
48
48
38
08
ENDCHAR
STARTCHAR char72
ENCODING 114
SWIDTH 1000 0
DWIDTH 6 0
BBX 6 6 0 -1
BITMAP 
00
58
60
40
40
00
ENDCHAR
STARTCHAR char73
ENCODING 115
SWIDTH 1000 0
DWIDTH 6 0
BBX 6 6 0 -1
BITMAP 
00
38
60
18
70
00
ENDCHAR
STARTCHAR char74
ENCODING 116
SWIDTH 1000 0
DWIDTH 6 0
BBX 6 6 0 -1
BITMAP 
20
78
20
20
18
00
ENDCHAR
STARTCHAR char75
ENCODING 117
SWIDTH 1000 0
DWIDTH 6 0
BBX 6 6 0 -1
BITMAP 
00
48
48
48
38
00
ENDCHAR
STARTCHAR char76
ENCODING 118
SWIDTH 1000 0
DWIDTH 6 0
BBX 6 6 0 -1
BITMAP 
00
48
48
50
20
00
ENDCHAR
STARTCHAR char77
ENCODING 119
SWIDTH 1000 0
DWIDTH 6 0
BBX 6 6 0 -1
BITMAP 
00
44
54
54
28
00
ENDCHAR
STARTCHAR char78
ENCODING 120
SWIDTH 1000 0
DWIDTH 6 0
BBX 6 6 0 -1
BITMAP 
00
48
30
30
48
00
ENDCHAR
STARTCHAR char79
ENCODING 121
SWIDTH 1000 0
DWIDTH 6 0
BBX 6 6 0 -1
BITMAP 
00
48
48
50
20
40
ENDCHAR
STARTCHAR char7A
ENCODING 122
SWIDTH 1000 0
DWIDTH 6 0
BBX 6 6 0 -1
BITMAP 
00
78
10
20
78
00
ENDCHAR
STARTCHAR char7B
ENCODING 123
SWIDTH 1000 0
DWIDTH 6 0
BBX 6 6 0 -1
BITMAP 
18
10
60
10
18
00
ENDCHAR
STARTCHAR char7C
ENCODING 124
SWIDTH 1000 0
DWIDTH 6 0
BBX 6 6 0 -1
BITMAP 
10
10
10
00
10
10
ENDCHAR
STARTCHAR char7D
ENCODING 125
SWIDTH 1000 0
DWIDTH 6 0
BBX 6 6 0 -1
BITMAP 
60
20
18
20
60
00
ENDCHAR
STARTCHAR char7E
ENCODING 126
SWIDTH 1000 0
DWIDTH 6 0
BBX 6 6 0 -1
BITMAP 
24
54
48
00
00
00
ENDCHAR
STARTCHAR char7F
ENCODING 127
SWIDTH 1000 0
DWIDTH 6 0
BBX 6 6 0 -1
BITMAP 
10
28
44
44
7C
00
ENDCHAR
STARTCHAR char80
ENCODING 128
SWIDTH 1000 0
DWIDTH 6 0
BBX 6 6 0 -1
BITMAP 
38
40
40
40
38
60
ENDCHAR
STARTCHAR char81
ENCODING 129
SWIDTH 1000 0
DWIDTH 6 0
BBX 6 6 0 -1
BITMAP 
48
00
48
48
38
00
ENDCHAR
STARTCHAR char82
ENCODING 130
SWIDTH 1000 0
DWIDTH 6 0
BBX 6 6 0 -1
BITMAP 
08
10
78
40
38
00
ENDCHAR
STARTCHAR char83
ENCODING 131
SWIDTH 1000 0
DWIDTH 6 0
BBX 6 6 0 -1
BITMAP 
10
28
38
48
38
00
ENDCHAR
STARTCHAR char84
ENCODING 132
SWIDTH 1000 0
DWIDTH 6 0
BBX 6 6 0 -1
BITMAP 
48
00
38
48
38
00
ENDCHAR
STARTCHAR char85
ENCODING 133
SWIDTH 1000 0
DWIDTH 6 0
BBX 6 6 0 -1
BITMAP 
40
20
38
48
38
00
ENDCHAR
STARTCHAR char86
ENCODING 134
SWIDTH 1000 0
DWIDTH 6 0
BBX 6 6 0 -1
BITMAP 
38
28
38
48
38
00
ENDCHAR
STARTCHAR char87
ENCODING 135
SWIDTH 1000 0
DWIDTH 6 0
BBX 6 6 0 -1
BITMAP 
00
38
40
40
38
60
ENDCHAR
STARTCHAR char88
ENCODING 136
SWIDTH 1000 0
DWIDTH 6 0
BBX 6 6 0 -1
BITMAP 
10
28
78
40
38
00
ENDCHAR
STARTCHAR char89
ENCODING 137
SWIDTH 1000 0
DWIDTH 6 0
BBX 6 6 0 -1
BITMAP 
20
F8
20
00
F8
00
ENDCHAR
STARTCHAR char8A
ENCODING 138
SWIDTH 1000 0
DWIDTH 6 0
BBX 6 6 0 -1
BITMAP 
40
20
78
40
38
00
ENDCHAR
STARTCHAR char8B
ENCODING 139
SWIDTH 1000 0
DWIDTH 6 0
BBX 6 6 0 -1
BITMAP 
10
10
10
10
10
60
ENDCHAR
STARTCHAR char8C
ENCODING 140
SWIDTH 1000 0
DWIDTH 6 0
BBX 6 6 0 -1
BITMAP 
30
48
30
10
78
00
ENDCHAR
STARTCHAR char8D
ENCODING 141
SWIDTH 1000 0
DWIDTH 6 0
BBX 6 6 0 -1
BITMAP 
40
20
30
10
78
00
ENDCHAR
STARTCHAR char8E
ENCODING 142
SWIDTH 1000 0
DWIDTH 6 0
BBX 6 6 0 -1
BITMAP 
48
30
48
78
48
00
ENDCHAR
STARTCHAR char8F
ENCODING 143
SWIDTH 1000 0
DWIDTH 6 0
BBX 6 6 0 -1
BITMAP 
30
30
48
78
48
00
ENDCHAR
STARTCHAR char90
ENCODING 144
SWIDTH 1000 0
DWIDTH 6 0
BBX 6 6 0 -1
BITMAP 
18
78
40
70
78
00
ENDCHAR
STARTCHAR char91
ENCODING 145
SWIDTH 1000 0
DWIDTH 6 0
BBX 6 6 0 -1
BITMAP 
00
6C
1C
70
3C
00
ENDCHAR
STARTCHAR char92
ENCODING 146
SWIDTH 1000 0
DWIDTH 6 0
BBX 6 6 0 -1
BITMAP 
3C
50
7C
50
5C
00
ENDCHAR
STARTCHAR char93
ENCODING 147
SWIDTH 1000 0
DWIDTH 6 0
BBX 6 6 0 -1
BITMAP 
10
28
30
48
30
00
ENDCHAR
STARTCHAR char94
ENCODING 148
SWIDTH 1000 0
DWIDTH 6 0
BBX 6 6 0 -1
BITMAP 
48
00
30
48
30
00
ENDCHAR
STARTCHAR char95
ENCODING 149
SWIDTH 1000 0
DWIDTH 6 0
BBX 6 6 0 -1
BITMAP 
40
20
30
48
30
00
ENDCHAR
STARTCHAR char96
ENCODING 150
SWIDTH 1000 0
DWIDTH 6 0
BBX 6 6 0 -1
BITMAP 
10
28
48
48
38
00
ENDCHAR
STARTCHAR char97
ENCODING 151
SWIDTH 1000 0
DWIDTH 6 0
BBX 6 6 0 -1
BITMAP 
40
20
48
48
38
00
ENDCHAR
STARTCHAR char98
ENCODING 152
SWIDTH 1000 0
DWIDTH 6 0
BBX 6 6 0 -1
BITMAP 
48
00
48
50
20
40
ENDCHAR
STARTCHAR char99
ENCODING 153
SWIDTH 1000 0
DWIDTH 6 0
BBX 6 6 0 -1
BITMAP 
48
30
48
48
30
00
ENDCHAR
STARTCHAR char9A
ENCODING 154
SWIDTH 1000 0
DWIDTH 6 0
BBX 6 6 0 -1
BITMAP 
48
00
48
48
78
00
ENDCHAR
STARTCHAR char9B
ENCODING 155
SWIDTH 1000 0
DWIDTH 6 0
BBX 6 6 0 -1
BITMAP 
10
38
40
38
10
00
ENDCHAR
STARTCHAR char9C
ENCODING 156
SWIDTH 1000 0
DWIDTH 6 0
BBX 6 6 0 -1
BITMAP 
18
20
70
20
78
00
ENDCHAR
STARTCHAR char9D
ENCODING 157
SWIDTH 1000 0
DWIDTH 6 0
BBX 6 6 0 -1
BITMAP 
44
28
7C
10
10
00
ENDCHAR
STARTCHAR char9E
ENCODING 158
SWIDTH 1000 0
DWIDTH 6 0
BBX 6 6 0 -1
BITMAP 
70
48
78
50
58
00
ENDCHAR
STARTCHAR char9F
ENCODING 159
SWIDTH 1000 0
DWIDTH 6 0
BBX 6 6 0 -1
BITMAP 
0C
10
38
10
60
00
ENDCHAR
STARTCHAR charA0
ENCODING 160
SWIDTH 1000 0
DWIDTH 6 0
BBX 6 6 0 -1
BITMAP 
08
10
38
48
38
00
ENDCHAR
STARTCHAR charA1
ENCODING 161
SWIDTH 1000 0
DWIDTH 6 0
BBX 6 6 0 -1
BITMAP 
08
10
30
10
78
00
ENDCHAR
STARTCHAR charA2
ENCODING 162
SWIDTH 1000 0
DWIDTH 6 0
BBX 6 6 0 -1
BITMAP 
08
10
30
48
30
00
ENDCHAR
STARTCHAR charA3
ENCODING 163
SWIDTH 1000 0
DWIDTH 6 0
BBX 6 6 0 -1
BITMAP 
08
10
48
48
38
00
ENDCHAR
STARTCHAR charA4
ENCODING 164
SWIDTH 1000 0
DWIDTH 6 0
BBX 6 6 0 -1
BITMAP 
78
00
70
48
48
00
ENDCHAR
STARTCHAR charA5
ENCODING 165
SWIDTH 1000 0
DWIDTH 6 0
BBX 6 6 0 -1
BITMAP 
78
00
68
58
48
00
ENDCHAR
STARTCHAR charA6
ENCODING 166
SWIDTH 1000 0
DWIDTH 6 0
BBX 6 6 0 -1
BITMAP 
38
48
38
00
78
00
ENDCHAR
STARTCHAR charA7
ENCODING 167
SWIDTH 1000 0
DWIDTH 6 0
BBX 6 6 0 -1
BITMAP 
30
48
30
00
78
00
ENDCHAR
STARTCHAR charA8
ENCODING 168
SWIDTH 1000 0
DWIDTH 6 0
BBX 6 6 0 -1
BITMAP 
00
10
00
30
40
38
ENDCHAR
STARTCHAR charA9
ENCODING 169
SWIDTH 1000 0
DWIDTH 6 0
BBX 6 6 0 -1
BITMAP 
00
00
00
FC
C0
C0
ENDCHAR
STARTCHAR charAA
ENCODING 170
SWIDTH 1000 0
DWIDTH 6 0
BBX 6 6 0 -1
BITMAP 
00
00
FC
04
04
00
ENDCHAR
STARTCHAR charAB
ENCODING 171
SWIDTH 1000 0
DWIDTH 6 0
BBX 6 6 0 -1
BITMAP 
80
B0
88
90
38
00
ENDCHAR
STARTCHAR charAC
ENCODING 172
SWIDTH 1000 0
DWIDTH 6 0
BBX 6 6 0 -1
BITMAP 
80
90
B0
B8
10
00
ENDCHAR
STARTCHAR charAD
ENCODING 173
SWIDTH 1000 0
DWIDTH 6 0
BBX 6 6 0 -1
BITMAP 
00
20
00
20
20
20
ENDCHAR
STARTCHAR charAE
ENCODING 174
SWIDTH 1000 0
DWIDTH 6 0
BBX 6 6 0 -1
BITMAP 
00
00
24
48
24
00
ENDCHAR
STARTCHAR charAF
ENCODING 175
SWIDTH 1000 0
DWIDTH 6 0
BBX 6 6 0 -1
BITMAP 
00
00
48
24
48
00
ENDCHAR
STARTCHAR charB0
ENCODING 176
SWIDTH 1000 0
DWIDTH 6 0
BBX 6 6 0 -1
BITMAP 
A8
54
A8
54
A8
54
ENDCHAR
STARTCHAR charB1
ENCODING 177
SWIDTH 1000 0
DWIDTH 6 0
BBX 6 6 0 -1
BITMAP 
D8
6C
B4
D8
6C
B4
ENDCHAR
STARTCHAR charB2
ENCODING 178
SWIDTH 1000 0
DWIDTH 6 0
BBX 6 6 0 -1
BITMAP 
74
EC
DC
B8
74
EC
ENDCHAR
STARTCHAR charB3
ENCODING 179
SWIDTH 1000 0
DWIDTH 6 0
BBX 6 6 0 -1
BITMAP 
20
20
20
20
20
20
ENDCHAR
STARTCHAR charB4
ENCODING 180
SWIDTH 1000 0
DWIDTH 6 0
BBX 6 6 0 -1
BITMAP 
20
20
E0
20
20
20
ENDCHAR
STARTCHAR charB5
ENCODING 181
SWIDTH 1000 0
DWIDTH 6 0
BBX 6 6 0 -1
BITMAP 
20
E0
20
E0
20
20
ENDCHAR
STARTCHAR charB6
ENCODING 182
SWIDTH 1000 0
DWIDTH 6 0
BBX 6 6 0 -1
BITMAP 
50
50
D0
50
50
50
ENDCHAR
STARTCHAR charB7
ENCODING 183
SWIDTH 1000 0
DWIDTH 6 0
BBX 6 6 0 -1
BITMAP 
00
00
F0
50
50
50
ENDCHAR
STARTCHAR charB8
ENCODING 184
SWIDTH 1000 0
DWIDTH 6 0
BBX 6 6 0 -1
BITMAP 
00
E0
20
E0
20
20
ENDCHAR
STARTCHAR charB9
ENCODING 185
SWIDTH 1000 0
DWIDTH 6 0
BBX 6 6 0 -1
BITMAP 
50
D0
10
D0
50
50
ENDCHAR
STARTCHAR charBA
ENCODING 186
SWIDTH 1000 0
DWIDTH 6 0
BBX 6 6 0 -1
BITMAP 
50
50
50
50
50
50
ENDCHAR
STARTCHAR charBB
ENCODING 187
SWIDTH 1000 0
DWIDTH 6 0
BBX 6 6 0 -1
BITMAP 
00
F0
10
D0
50
50
ENDCHAR
STARTCHAR charBC
ENCODING 188
SWIDTH 1000 0
DWIDTH 6 0
BBX 6 6 0 -1
BITMAP 
50
D0
10
F0
00
00
ENDCHAR
STARTCHAR charBD
ENCODING 189
SWIDTH 1000 0
DWIDTH 6 0
BBX 6 6 0 -1
BITMAP 
50
50
F0
00
00
00
ENDCHAR
STARTCHAR charBE
ENCODING 190
SWIDTH 1000 0
DWIDTH 6 0
BBX 6 6 0 -1
BITMAP 
20
E0
20
E0
00
00
ENDCHAR
STARTCHAR charBF
ENCODING 191
SWIDTH 1000 0
DWIDTH 6 0
BBX 6 6 0 -1
BITMAP 
00
00
E0
20
20
20
ENDCHAR
STARTCHAR charC0
ENCODING 192
SWIDTH 1000 0
DWIDTH 6 0
BBX 6 6 0 -1
BITMAP 
20
20
3C
00
00
00
ENDCHAR
STARTCHAR charC1
ENCODING 193
SWIDTH 1000 0
DWIDTH 6 0
BBX 6 6 0 -1
BITMAP 
20
20
FC
00
00
00
ENDCHAR
STARTCHAR charC2
ENCODING 194
SWIDTH 1000 0
DWIDTH 6 0
BBX 6 6 0 -1
BITMAP 
00
00
FC
20
20
20
ENDCHAR
STARTCHAR charC3
ENCODING 195
SWIDTH 1000 0
DWIDTH 6 0
BBX 6 6 0 -1
BITMAP 
20
20
3C
20
20
20
ENDCHAR
STARTCHAR charC4
ENCODING 196
SWIDTH 1000 0
DWIDTH 6 0
BBX 6 6 0 -1
BITMAP 
00
00
FC
00
00
00
ENDCHAR
STARTCHAR charC5
ENCODING 197
SWIDTH 1000 0
DWIDTH 6 0
BBX 6 6 0 -1
BITMAP 
20
20
FC
20
20
20
ENDCHAR
STARTCHAR charC6
ENCODING 198
SWIDTH 1000 0
DWIDTH 6 0
BBX 6 6 0 -1
BITMAP 
20
3C
20
3C
20
20
ENDCHAR
STARTCHAR charC7
ENCODING 199
SWIDTH 1000 0
DWIDTH 6 0
BBX 6 6 0 -1
BITMAP 
50
50
5C
50
50
50
ENDCHAR
STARTCHAR charC8
ENCODING 200
SWIDTH 1000 0
DWIDTH 6 0
BBX 6 6 0 -1
BITMAP 
50
5C
40
7C
00
00
ENDCHAR
STARTCHAR charC9
ENCODING 201
SWIDTH 1000 0
DWIDTH 6 0
BBX 6 6 0 -1
BITMAP 
00
7C
40
5C
50
50
ENDCHAR
STARTCHAR charCA
ENCODING 202
SWIDTH 1000 0
DWIDTH 6 0
BBX 6 6 0 -1
BITMAP 
50
FC
00
FC
00
00
ENDCHAR
STARTCHAR charCB
ENCODING 203
SWIDTH 1000 0
DWIDTH 6 0
BBX 6 6 0 -1
BITMAP 
00
FC
00
DC
50
50
ENDCHAR
STARTCHAR charCC
ENCODING 204
SWIDTH 1000 0
DWIDTH 6 0
BBX 6 6 0 -1
BITMAP 
50
5C
40
5C
50
50
ENDCHAR
STARTCHAR charCD
ENCODING 205
SWIDTH 1000 0
DWIDTH 6 0
BBX 6 6 0 -1
BITMAP 
00
FC
00
FC
00
00
ENDCHAR
STARTCHAR charCE
ENCODING 206
SWIDTH 1000 0
DWIDTH 6 0
BBX 6 6 0 -1
BITMAP 
50
DC
00
DC
50
50
ENDCHAR
STARTCHAR charCF
ENCODING 207
SWIDTH 1000 0
DWIDTH 6 0
BBX 6 6 0 -1
BITMAP 
20
FC
00
FC
00
00
ENDCHAR
STARTCHAR charD0
ENCODING 208
SWIDTH 1000 0
DWIDTH 6 0
BBX 6 6 0 -1
BITMAP 
50
50
FC
00
00
00
ENDCHAR
STARTCHAR charD1
ENCODING 209
SWIDTH 1000 0
DWIDTH 6 0
BBX 6 6 0 -1
BITMAP 
00
FC
00
FC
20
20
ENDCHAR
STARTCHAR charD2
ENCODING 210
SWIDTH 1000 0
DWIDTH 6 0
BBX 6 6 0 -1
BITMAP 
00
00
FC
50
50
50
ENDCHAR
STARTCHAR charD3
ENCODING 211
SWIDTH 1000 0
DWIDTH 6 0
BBX 6 6 0 -1
BITMAP 
50
50
7C
00
00
00
ENDCHAR
STARTCHAR charD4
ENCODING 212
SWIDTH 1000 0
DWIDTH 6 0
BBX 6 6 0 -1
BITMAP 
20
3C
20
3C
00
00
ENDCHAR
STARTCHAR charD5
ENCODING 213
SWIDTH 1000 0
DWIDTH 6 0
BBX 6 6 0 -1
BITMAP 
00
3C
20
3C
20
20
ENDCHAR
STARTCHAR charD6
ENCODING 214
SWIDTH 1000 0
DWIDTH 6 0
BBX 6 6 0 -1
BITMAP 
00
00
7C
50
50
50
ENDCHAR
STARTCHAR charD7
ENCODING 215
SWIDTH 1000 0
DWIDTH 6 0
BBX 6 6 0 -1
BITMAP 
50
50
FC
50
50
50
ENDCHAR
STARTCHAR charD8
ENCODING 216
SWIDTH 1000 0
DWIDTH 6 0
BBX 6 6 0 -1
BITMAP 
20
FC
20
FC
20
20
ENDCHAR
STARTCHAR charD9
ENCODING 217
SWIDTH 1000 0
DWIDTH 6 0
BBX 6 6 0 -1
BITMAP 
20
20
E0
00
00
00
ENDCHAR
STARTCHAR charDA
ENCODING 218
SWIDTH 1000 0
DWIDTH 6 0
BBX 6 6 0 -1
BITMAP 
00
00
3C
20
20
20
ENDCHAR
STARTCHAR charDB
ENCODING 219
SWIDTH 1000 0
DWIDTH 6 0
BBX 6 6 0 -1
BITMAP 
FC
FC
FC
FC
FC
FC
ENDCHAR
STARTCHAR charDC
ENCODING 220
SWIDTH 1000 0
DWIDTH 6 0
BBX 6 6 0 -1
BITMAP 
00
00
00
FC
FC
FC
ENDCHAR
STARTCHAR charDD
ENCODING 221
SWIDTH 1000 0
DWIDTH 6 0
BBX 6 6 0 -1
BITMAP 
E0
E0
E0
E0
E0
E0
ENDCHAR
STARTCHAR charDE
ENCODING 222
SWIDTH 1000 0
DWIDTH 6 0
BBX 6 6 0 -1
BITMAP 
1C
1C
1C
1C
1C
1C
ENDCHAR
STARTCHAR charDF
ENCODING 223
SWIDTH 1000 0
DWIDTH 6 0
BBX 6 6 0 -1
BITMAP 
FC
FC
FC
00
00
00
ENDCHAR
STARTCHAR charE0
ENCODING 224
SWIDTH 1000 0
DWIDTH 6 0
BBX 6 6 0 -1
BITMAP 
68
B0
90
B0
68
00
ENDCHAR
STARTCHAR charE1
ENCODING 225
SWIDTH 1000 0
DWIDTH 6 0
BBX 6 6 0 -1
BITMAP 
30
48
50
48
70
40
ENDCHAR
STARTCHAR charE2
ENCODING 226
SWIDTH 1000 0
DWIDTH 6 0
BBX 6 6 0 -1
BITMAP 
F8
88
80
80
80
00
ENDCHAR
STARTCHAR charE3
ENCODING 227
SWIDTH 1000 0
DWIDTH 6 0
BBX 6 6 0 -1
BITMAP 
F8
90
90
90
98
00
ENDCHAR
STARTCHAR charE4
ENCODING 228
SWIDTH 1000 0
DWIDTH 6 0
BBX 6 6 0 -1
BITMAP 
F8
60
30
60
F8
00
ENDCHAR
STARTCHAR charE5
ENCODING 229
SWIDTH 1000 0
DWIDTH 6 0
BBX 6 6 0 -1
BITMAP 
78
90
90
90
60
00
ENDCHAR
STARTCHAR charE6
ENCODING 230
SWIDTH 1000 0
DWIDTH 6 0
BBX 6 6 0 -1
BITMAP 
48
48
48
48
70
80
ENDCHAR
STARTCHAR charE7
ENCODING 231
SWIDTH 1000 0
DWIDTH 6 0
BBX 6 6 0 -1
BITMAP 
F8
20
20
20
38
00
ENDCHAR
STARTCHAR charE8
ENCODING 232
SWIDTH 1000 0
DWIDTH 6 0
BBX 6 6 0 -1
BITMAP 
20
70
A8
70
20
00
ENDCHAR
STARTCHAR charE9
ENCODING 233
SWIDTH 1000 0
DWIDTH 6 0
BBX 6 6 0 -1
BITMAP 
70
88
F8
88
70
00
ENDCHAR
STARTCHAR charEA
ENCODING 234
SWIDTH 1000 0
DWIDTH 6 0
BBX 6 6 0 -1
BITMAP 
70
88
50
50
D8
00
ENDCHAR
STARTCHAR charEB
ENCODING 235
SWIDTH 1000 0
DWIDTH 6 0
BBX 6 6 0 -1
BITMAP 
18
10
70
90
70
00
ENDCHAR
STARTCHAR charEC
ENCODING 236
SWIDTH 1000 0
DWIDTH 6 0
BBX 6 6 0 -1
BITMAP 
00
50
A8
A8
50
00
ENDCHAR
STARTCHAR charED
ENCODING 237
SWIDTH 1000 0
DWIDTH 6 0
BBX 6 6 0 -1
BITMAP 
08
70
A8
A8
70
80
ENDCHAR
STARTCHAR charEE
ENCODING 238
SWIDTH 1000 0
DWIDTH 6 0
BBX 6 6 0 -1
BITMAP 
78
80
F8
80
78
00
ENDCHAR
STARTCHAR charEF
ENCODING 239
SWIDTH 1000 0
DWIDTH 6 0
BBX 6 6 0 -1
BITMAP 
70
88
88
88
88
00
ENDCHAR
STARTCHAR charF0
ENCODING 240
SWIDTH 1000 0
DWIDTH 6 0
BBX 6 6 0 -1
BITMAP 
F8
00
F8
00
F8
00
ENDCHAR
STARTCHAR charF1
ENCODING 241
SWIDTH 1000 0
DWIDTH 6 0
BBX 6 6 0 -1
BITMAP 
20
F8
20
00
F8
00
ENDCHAR
STARTCHAR charF2
ENCODING 242
SWIDTH 1000 0
DWIDTH 6 0
BBX 6 6 0 -1
BITMAP 
60
18
60
00
78
00
ENDCHAR
STARTCHAR charF3
ENCODING 243
SWIDTH 1000 0
DWIDTH 6 0
BBX 6 6 0 -1
BITMAP 
18
60
18
00
7C
00
ENDCHAR
STARTCHAR charF4
ENCODING 244
SWIDTH 1000 0
DWIDTH 6 0
BBX 6 6 0 -1
BITMAP 
10
28
28
20
20
20
ENDCHAR
STARTCHAR charF5
ENCODING 245
SWIDTH 1000 0
DWIDTH 6 0
BBX 6 6 0 -1
BITMAP 
20
20
20
A0
A0
40
ENDCHAR
STARTCHAR charF6
ENCODING 246
SWIDTH 1000 0
DWIDTH 6 0
BBX 6 6 0 -1
BITMAP 
20
00
F8
00
20
00
ENDCHAR
STARTCHAR charF7
ENCODING 247
SWIDTH 1000 0
DWIDTH 6 0
BBX 6 6 0 -1
BITMAP 
00
48
B0
48
B0
00
ENDCHAR
STARTCHAR charF8
ENCODING 248
SWIDTH 1000 0
DWIDTH 6 0
BBX 6 6 0 -1
BITMAP 
60
90
60
00
00
00
ENDCHAR
STARTCHAR charF9
ENCODING 249
SWIDTH 1000 0
DWIDTH 6 0
BBX 6 6 0 -1
BITMAP 
60
F0
60
00
00
00
ENDCHAR
STARTCHAR charFA
ENCODING 250
SWIDTH 1000 0
DWIDTH 6 0
BBX 6 6 0 -1
BITMAP 
00
00
20
00
00
00
ENDCHAR
STARTCHAR charFB
ENCODING 251
SWIDTH 1000 0
DWIDTH 6 0
BBX 6 6 0 -1
BITMAP 
18
10
10
90
50
30
ENDCHAR
STARTCHAR charFC
ENCODING 252
SWIDTH 1000 0
DWIDTH 6 0
BBX 6 6 0 -1
BITMAP 
70
48
48
48
00
00
ENDCHAR
STARTCHAR charFD
ENCODING 253
SWIDTH 1000 0
DWIDTH 6 0
BBX 6 6 0 -1
BITMAP 
60
10
20
70
00
00
ENDCHAR
STARTCHAR charFE
ENCODING 254
SWIDTH 1000 0
DWIDTH 6 0
BBX 6 6 0 -1
BITMAP 
00
60
60
00
00
00
ENDCHAR
STARTCHAR charFF
ENCODING 255
SWIDTH 1000 0
DWIDTH 6 0
BBX 6 6 0 -1
BITMAP 
00
00
00
00
00
00
ENDCHAR
ENDFONT
